<svg width="150" height="150" viewBox="0 0 150 150" fill="none" xmlns="http://www.w3.org/2000/svg">
<rect width="150" height="150" fill="white"/>
<path d="M29.5389 15.1638L83.7576 29.6713C84.9794 29.9982 85.5947 31.3629 85.0309 32.495L58.8942 84.9711C58.3333 86.0972 56.8843 86.432 55.8863 85.666L11.4342 51.5494C10.675 50.9667 10.435 49.9278 10.8617 49.0711L27.2317 16.2042C27.6556 15.353 28.6203 14.918 29.5389 15.1638Z" stroke="black" stroke-width="5"/>
<path d="M108 119C104.804 80.8765 87.913 64.3519 76.5 63L67.8261 80.8765C79.6957 93.729 71.0217 109.361 66 119H108Z" fill="black"/>
<path d="M5.5 145L12.4597 131.081C14.323 127.354 18.1319 125 22.2984 125H127.047C131.294 125 135.161 127.444 136.983 131.28L143.5 145" stroke="black" stroke-width="5" stroke-linecap="round"/>
<rect x="84" y="38" width="48" height="8" rx="4" fill="white" stroke="black" stroke-width="4"/>
<circle cx="83" cy="47" r="5" fill="black"/>
</svg>
