<svg width="150" height="150" viewBox="0 0 150 150" fill="none" xmlns="http://www.w3.org/2000/svg">
<g clip-path="url(#clip0)">
<rect width="150" height="150" fill="white"/>
<circle cx="78.1332" cy="42.4974" r="28.8122" transform="rotate(-82.1034 78.1332 42.4974)" fill="white" stroke="black" stroke-width="8"/>
<path d="M60.1256 42.179C60.0877 39.1119 60.8469 36.0876 62.3289 33.402C63.811 30.7165 65.965 28.4619 68.5802 26.859C71.1954 25.2561 74.182 24.3599 77.2476 24.258C80.3132 24.1561 83.3528 24.8521 86.0686 26.2779" stroke="black" stroke-width="5" stroke-linecap="round"/>
<path d="M93.2861 33.3272C95.2279 36.5359 96.101 40.2782 95.7797 44.015C95.4583 47.7517 93.959 51.29 91.4978 54.12" stroke="black" stroke-width="5" stroke-linecap="round"/>
<path d="M85.1756 58.7486C81.4586 60.3593 77.3018 60.6472 73.3983 59.5643C69.4948 58.4813 66.0805 56.0929 63.7247 52.7974" stroke="black" stroke-width="5" stroke-linecap="round"/>
<path d="M71.7257 43.9453C71.3454 42.4407 71.4788 40.852 72.1048 39.4319C72.7308 38.0118 73.8134 36.8416 75.1806 36.1072C76.5479 35.3729 78.1214 35.1166 79.651 35.379C81.1806 35.6414 82.5787 36.4074 83.6231 37.5555" stroke="black" stroke-width="5" stroke-linecap="round"/>
<path d="M84.6839 45.3844C83.9396 46.8539 82.6984 48.0119 81.1808 48.6524C79.6632 49.293 77.9677 49.3746 76.3956 48.8827" stroke="black" stroke-width="5" stroke-linecap="round"/>
<circle cx="45.5157" cy="100.304" r="28.8122" transform="rotate(-141.103 45.5157 100.304)" fill="white" stroke="black" stroke-width="8"/>
<path d="M35.9679 115.576C33.3194 114.029 31.118 111.82 29.5794 109.167C28.0409 106.513 27.2178 103.506 27.1908 100.438C27.1638 97.3712 27.9338 94.3496 29.4254 91.6694C30.9171 88.9892 33.0792 86.7423 35.7001 85.1488" stroke="black" stroke-width="5" stroke-linecap="round"/>
<path d="M45.4599 82.593C49.2104 82.5812 52.8679 83.7603 55.9053 85.9604C58.9428 88.1604 61.2035 91.268 62.3616 94.8352" stroke="black" stroke-width="5" stroke-linecap="round"/>
<path d="M63.0728 102.638C62.5391 106.654 60.6449 110.365 57.7061 113.153C54.7673 115.942 50.9615 117.638 46.9234 117.96" stroke="black" stroke-width="5" stroke-linecap="round"/>
<path d="M43.4566 106.543C41.971 106.094 40.6781 105.161 39.7832 103.893C38.8883 102.625 38.4429 101.094 38.5177 99.5441C38.5924 97.9939 39.1831 96.5132 40.1959 95.3372C41.2086 94.1612 42.5854 93.3574 44.1073 93.0535" stroke="black" stroke-width="5" stroke-linecap="round"/>
<path d="M51.3643 96.1764C52.2406 97.5712 52.5939 99.2316 52.3613 100.862C52.1287 102.493 51.3253 103.988 50.094 105.083" stroke="black" stroke-width="5" stroke-linecap="round"/>
<circle cx="111.859" cy="101.165" r="28.8122" transform="rotate(172.248 111.859 101.165)" fill="white" stroke="black" stroke-width="8"/>
<path d="M116.409 118.591C113.466 119.454 110.349 119.539 107.363 118.836C104.378 118.134 101.626 116.668 99.3768 114.582C97.1279 112.496 95.4592 109.862 94.5342 106.937C93.6092 104.013 93.4596 100.898 94.0999 97.8983" stroke="black" stroke-width="5" stroke-linecap="round"/>
<path d="M98.9411 89.0469C101.507 86.3116 104.875 84.4614 108.56 83.7629C112.245 83.0644 116.057 83.5537 119.446 85.1603" stroke="black" stroke-width="5" stroke-linecap="round"/>
<path d="M125.608 89.9997C128.162 93.1444 129.56 97.0694 129.57 101.12C129.58 105.171 128.201 109.103 125.663 112.261" stroke="black" stroke-width="5" stroke-linecap="round"/>
<path d="M114.981 106.944C113.635 107.716 112.069 108.016 110.533 107.796C108.997 107.577 107.578 106.85 106.502 105.731C105.426 104.613 104.755 103.167 104.595 101.623C104.435 100.079 104.795 98.5265 105.619 97.2112" stroke="black" stroke-width="5" stroke-linecap="round"/>
<path d="M112.872 94.0779C114.487 94.3982 115.937 95.2811 116.963 96.5696C117.99 97.8582 118.525 99.4689 118.476 101.115" stroke="black" stroke-width="5" stroke-linecap="round"/>
</g>
<defs>
<clipPath id="clip0">
<rect width="150" height="150" fill="white"/>
</clipPath>
</defs>
</svg>
