<svg width="150" height="150" viewBox="0 0 150 150" fill="none" xmlns="http://www.w3.org/2000/svg">
<rect width="150" height="150" fill="white"/>
<g clip-path="url(#clip0)">
<path d="M122.625 77.9225L101.345 83.6216L93.1425 78.8899V70.0104L101.251 65.3539L122.625 71.0808C123.054 71.1954 123.486 71.252 123.914 71.252C126.109 71.252 128.118 69.7858 128.711 67.5649C129.422 64.9109 127.849 62.1833 125.195 61.4731L113.478 58.3336L124.279 52.1321C126.66 50.7647 127.484 47.7249 126.116 45.3431C124.744 42.9614 121.711 42.1362 119.329 43.5069L108.505 49.723L111.644 38.0018C112.354 35.3485 110.783 32.6204 108.128 31.9102C105.49 31.2184 102.751 32.7745 102.04 35.426L96.3371 56.707L88.1774 61.393L80.4423 56.9207V47.5365L96.0845 31.8945C98.0263 29.9517 98.0263 26.8049 96.0845 24.8618C94.1422 22.9193 90.9961 22.9193 89.0523 24.8618L80.4423 33.4716V20.9727C80.4426 18.2267 78.2154 16 75.4691 16C72.7234 16 70.4964 18.2264 70.4964 20.9727V33.41L61.949 24.8618C60.0065 22.9193 56.8596 22.9193 54.9166 24.8618C52.974 26.8046 52.974 29.9515 54.9166 31.8945L70.4964 47.4741V56.9568L62.8199 61.3854L54.6602 56.7037L48.9611 35.4263C48.2511 32.7748 45.5253 31.2144 42.8741 31.9104C40.2205 32.6207 38.6457 35.3487 39.3567 38.002L42.4952 49.7213L31.6719 43.5069C29.2858 42.1359 26.2486 42.9593 24.8832 45.3444C23.5165 47.7267 24.3406 50.7644 26.7222 52.1318L37.5228 58.3333L25.8053 61.4728C23.1515 62.1831 21.5772 64.9106 22.288 67.5647C22.8828 69.7856 24.8912 71.2518 27.0869 71.2518C27.5145 71.2518 27.9464 71.1952 28.3773 71.0805L49.7532 65.3516L57.853 70.002L57.8614 78.8896L49.6562 83.6299L28.3773 77.9223C25.7422 77.2307 22.9997 78.7886 22.288 81.4391C21.5772 84.0922 23.1515 86.8205 25.8053 87.5269L37.4798 90.6581L26.7098 96.8755C24.3323 98.2497 23.5165 101.288 24.8915 103.666C25.8126 105.267 27.4837 106.153 29.2004 106.153C30.0433 106.153 30.8987 105.943 31.6825 105.484L42.5071 99.2376L39.3567 111.002C38.6457 113.659 40.2205 116.379 42.8741 117.094C43.3037 117.21 43.7353 117.265 44.1632 117.265C46.3578 117.265 48.3663 115.797 48.9611 113.574L54.6885 92.2051L62.8346 87.505L70.4964 91.926V101.53L54.9166 117.11C52.974 119.053 52.974 122.199 54.9166 124.142C55.888 125.114 57.1582 125.595 58.4327 125.595C59.7029 125.595 60.9776 125.114 61.949 124.142L70.4964 115.595V128.028C70.4964 130.779 72.7234 133.001 75.4691 133.001C78.2154 133.001 80.4426 130.778 80.4426 128.028V115.533L89.0526 124.142C90.0237 125.114 91.2939 125.595 92.5687 125.595C93.8434 125.595 95.1136 125.114 96.0848 124.142C98.0266 122.199 98.0266 119.053 96.0848 117.11L80.4426 101.468V91.9644L88.1701 87.5044L96.3139 92.2046L102.041 113.574C102.635 115.796 104.644 117.265 106.838 117.265C107.264 117.265 107.697 117.21 108.128 117.093C110.783 116.379 112.354 113.659 111.644 111.001L108.49 99.2371L119.319 105.484C120.103 105.942 120.958 106.152 121.801 106.152C123.518 106.152 125.188 105.266 126.11 103.666C127.485 101.288 126.669 98.2497 124.292 96.875L113.522 90.6586L125.196 87.5272C127.85 86.8207 129.423 84.0922 128.712 81.4396C128.005 78.7886 125.274 77.2274 122.625 77.9225ZM83.1966 78.8899L75.5002 83.3349L67.8093 78.8896L67.8007 69.9942L75.5002 65.5522L83.1966 70.0008V78.8899Z" fill="black"/>
</g>
<defs>
<clipPath id="clip0">
<rect width="117" height="117" fill="white" transform="translate(17 16)"/>
</clipPath>
</defs>
</svg>
