<?xml version="1.0" encoding="UTF-8" standalone="no"?>
<!DOCTYPE svg PUBLIC "-//W3C//DTD SVG 1.1//EN" "http://www.w3.org/Graphics/SVG/1.1/DTD/svg11.dtd">
<svg width="100%" height="100%" viewBox="0 0 448 315" version="1.1" xmlns="http://www.w3.org/2000/svg" xmlns:xlink="http://www.w3.org/1999/xlink" xml:space="preserve" xmlns:serif="http://www.serif.com/" style="fill-rule:evenodd;clip-rule:evenodd;stroke-linejoin:round;stroke-miterlimit:2;">
    <g>
        <g>
            <g>
                <path d="M447,8.55c-0,-4.167 -3.383,-7.55 -7.55,-7.55l-430.9,-0c-4.167,-0 -7.55,3.383 -7.55,7.55l0,297.9c0,4.167 3.383,7.55 7.55,7.55l430.9,-0c4.167,-0 7.55,-3.383 7.55,-7.55l-0,-297.9Z" style="fill:#fff;"/>
                <path d="M448,8.55c-0,-4.719 -3.831,-8.55 -8.55,-8.55l-430.9,0c-4.719,0 -8.55,3.831 -8.55,8.55l0,297.9c0,4.719 3.831,8.55 8.55,8.55l430.9,-0c4.719,-0 8.55,-3.831 8.55,-8.55c-0,-0 -0,-297.9 -0,-297.9Zm-2,0l-0,297.9c-0,3.615 -2.935,6.55 -6.55,6.55c-0,-0 -430.9,-0 -430.9,-0c-3.615,-0 -6.55,-2.935 -6.55,-6.55l0,-297.9c0,-3.615 2.935,-6.55 6.55,-6.55l430.9,-0c3.615,-0 6.55,2.935 6.55,6.55Z" style="fill:#747474;"/>
                <g>
                    <path d="M56.214,269.393c0.298,-0.426 0.725,-1.172 1.279,-2.238c1.364,-2.43 2.184,-3.644 2.461,-3.644c0.277,-0 0.416,0.17 0.416,0.511c-0,2.089 -1.087,4.731 -3.261,7.928c-3.921,5.755 -9.143,8.632 -15.664,8.632c-1.833,-0 -3.517,-0.427 -5.051,-1.279c-1.535,-0.853 -2.75,-1.939 -3.645,-3.261c-1.833,-2.685 -2.749,-5.498 -2.749,-8.439c-0,-7.417 1.929,-13.395 5.786,-17.935c3.858,-4.539 8.429,-6.809 13.715,-6.809c2.003,0 3.644,0.586 4.923,1.758c1.279,1.173 1.918,2.654 1.918,4.444c-0,1.79 -0.448,3.453 -1.343,4.987c-0.895,1.534 -1.971,2.302 -3.229,2.302c-1.257,-0 -1.886,-0.341 -1.886,-1.023c0,-0.768 0.416,-1.641 1.247,-2.622c0.831,-0.98 1.247,-1.96 1.247,-2.941c-0,-3.026 -1.609,-4.539 -4.827,-4.539c-3.219,-0 -6.128,2.152 -8.728,6.457c-2.6,4.305 -3.9,8.738 -3.9,13.299c0,3.154 0.895,5.957 2.685,8.408c1.791,2.451 4.306,3.676 7.545,3.676c3.836,0 7.523,-2.557 11.061,-7.672Z" style="fill:#289925;fill-rule:nonzero;"/>
                    <path d="M64.142,280.262c-2.387,0 -4.284,-0.906 -5.69,-2.717c-1.407,-1.812 -2.11,-3.868 -2.11,-6.17c-0,-4.646 0.98,-8.163 2.941,-10.55c1.961,-2.387 4.497,-3.58 7.608,-3.58c1.45,-0 2.643,0.394 3.581,1.183c0.938,0.788 1.406,1.864 1.406,3.228c0,2.558 -1.076,4.7 -3.228,6.426c-2.153,1.726 -4.785,2.632 -7.896,2.717c0.17,1.663 0.735,3.101 1.694,4.316c0.959,1.215 2.078,1.822 3.357,1.822c1.278,0 2.429,-0.298 3.452,-0.895c1.023,-0.597 1.961,-1.449 2.813,-2.557c1.791,-2.345 3.325,-5.009 4.604,-7.992c0.341,-0.768 0.607,-1.322 0.799,-1.663c0.192,-0.341 0.405,-0.511 0.639,-0.511c0.235,-0 0.352,0.17 0.352,0.511c-0,2.132 -1.3,5.328 -3.9,9.591c-2.813,4.561 -6.287,6.841 -10.422,6.841Zm-3.388,-10.997c2.514,-0.426 4.358,-1.236 5.53,-2.43c1.172,-1.193 1.758,-2.749 1.758,-4.667c0,-1.918 -0.618,-2.877 -1.854,-2.877c-1.492,-0 -2.749,1.033 -3.772,3.101c-1.023,2.067 -1.577,4.358 -1.662,6.873Z" style="fill:#289925;fill-rule:nonzero;"/>
                    <path d="M80.638,263.255l3.516,-0.384c0.341,0 0.64,0.192 0.895,0.576c0.256,0.383 0.384,0.788 0.384,1.214c0,0.427 -0.138,1.876 -0.416,4.348c-0.277,2.472 -0.415,4.422 -0.415,5.85c-0,1.428 0.128,2.142 0.383,2.142c0.725,-0.042 1.727,-0.948 3.006,-2.717c1.278,-1.769 2.546,-4.039 3.804,-6.809c1.257,-2.771 2.024,-4.156 2.301,-4.156c0.278,-0 0.416,0.17 0.416,0.511c0,1.194 -0.618,3.091 -1.854,5.691c-3.367,7.161 -6.202,10.741 -8.504,10.741c-1.662,0 -2.919,-0.341 -3.772,-1.023c-0.298,-0.298 -0.448,-2.153 -0.448,-5.562c0,-3.41 0.363,-6.33 1.087,-8.76c-2.472,0 -4.198,-0.788 -5.178,-2.365c-0.512,-0.81 -0.768,-1.727 -0.768,-2.75c0,-1.023 0.213,-1.918 0.64,-2.685c0.426,-0.767 1.033,-1.151 1.822,-1.151c0.788,0 1.513,0.416 2.174,1.247c0.66,0.831 0.991,1.758 0.991,2.781c-0,1.023 -0.299,2.046 -0.895,3.069c0.17,0.128 0.447,0.192 0.831,0.192Z" style="fill:#289925;fill-rule:nonzero;"/>
                    <path d="M105.701,269.521c-3.367,7.161 -6.213,10.741 -8.536,10.741c-2.323,0 -3.687,-0.277 -4.092,-0.831c-0.404,-0.554 -0.607,-2.387 -0.607,-5.499c0,-3.111 0.298,-7.608 0.895,-13.49c-2.131,-0.427 -3.261,-1.3 -3.388,-2.622c-0,-0.682 0.447,-1.023 1.342,-1.023c0.895,0 1.684,0.171 2.366,0.512c0.383,-3.069 0.831,-6.181 1.343,-9.335c0.127,-0.81 0.532,-1.577 1.214,-2.302c0.682,-0.724 1.343,-1.087 1.982,-1.087c0.554,0 0.832,0.874 0.832,2.622c-0,0.81 -0.299,4.539 -0.896,11.189c1.151,-0.213 2.419,-0.64 3.805,-1.279c1.385,-0.639 2.205,-0.959 2.461,-0.959c0.767,-0 1.151,0.234 1.151,0.703c0.043,0.426 -0.746,1.013 -2.366,1.758c-1.619,0.746 -3.367,1.311 -5.242,1.695c-0.512,6.223 -0.768,10.933 -0.768,14.13c0,1.705 0.256,2.557 0.768,2.557c0.767,-0.042 1.79,-0.937 3.069,-2.685c1.278,-1.748 2.546,-4.017 3.804,-6.809c1.257,-2.792 2.024,-4.188 2.302,-4.188c0.277,-0 0.415,0.17 0.415,0.511c0,1.194 -0.618,3.091 -1.854,5.691Z" style="fill:#289925;fill-rule:nonzero;"/>
                    <path d="M106.596,248.677c0,-0.767 0.405,-1.428 1.215,-1.982c0.81,-0.554 1.534,-0.831 2.174,-0.831c1.151,0 1.726,0.661 1.726,1.982c-0,1.322 -0.341,2.462 -1.023,3.421c-0.682,0.959 -1.641,1.438 -2.877,1.438c-0.81,0 -1.215,-1.342 -1.215,-4.028Zm1.854,31.585c-1.662,0 -2.92,-0.341 -3.772,-1.023c-0.298,-0.298 -0.448,-1.364 -0.448,-3.197c0,-1.833 0.139,-4.891 0.416,-9.175c0.277,-4.283 0.522,-6.596 0.735,-6.937c0.213,-0.341 0.874,-0.98 1.982,-1.918c1.109,-0.938 1.972,-1.407 2.59,-1.407c0.618,0 0.927,0.81 0.927,2.43c-0,0.426 -0.117,1.257 -0.352,2.494c-0.234,1.236 -0.501,2.131 -0.799,2.685c-0.554,1.407 -0.831,5.094 -0.831,11.061c-0,1.151 0.128,1.726 0.383,1.726c0.725,-0.042 1.727,-0.948 3.005,-2.717c1.279,-1.769 2.547,-4.039 3.805,-6.809c1.257,-2.771 2.024,-4.156 2.301,-4.156c0.277,-0 0.416,0.17 0.416,0.511c-0,1.194 -0.618,3.091 -1.854,5.691c-3.368,7.161 -6.202,10.741 -8.504,10.741Z" style="fill:#289925;fill-rule:nonzero;"/>
                    <path d="M124.946,266.452c2.302,-0.554 4.23,-1.258 5.786,-2.11c1.556,-0.853 2.376,-1.279 2.462,-1.279c0.255,0 0.383,0.213 0.383,0.639c0,0.427 -0.426,0.959 -1.278,1.599c-1.791,1.321 -4.028,2.451 -6.714,3.388c1.108,4.22 1.663,8.696 1.663,13.427c-0,3.964 -0.448,7.758 -1.343,11.381c-0.512,2.046 -1.311,3.708 -2.398,4.987c-1.087,1.279 -2.419,1.918 -3.996,1.918c-1.364,0 -2.301,-0.597 -2.813,-1.79c-0.639,-1.407 -1.002,-2.749 -1.087,-4.028c-0.128,-2.004 -0.192,-5.264 -0.192,-9.782c0,-4.519 0.341,-9.975 1.023,-16.368c-1.534,-1.108 -2.301,-2.462 -2.301,-4.06c-0,-1.599 0.341,-2.835 1.023,-3.709c0.682,-0.873 1.534,-1.438 2.557,-1.694c0.597,-3.708 1.183,-6.905 1.758,-9.59c0.576,-2.686 1.46,-4.87 2.654,-6.554c1.193,-1.684 2.387,-2.525 3.58,-2.525c1.364,-0 2.046,1.513 2.046,4.539c0,4.774 -1.769,10.145 -5.307,16.112c0.895,1.279 1.727,3.112 2.494,5.499Zm-4.476,3.197c-0.383,5.242 -0.575,11.263 -0.575,18.062c-0,6.798 0.362,10.198 1.087,10.198c1.279,-0 2.344,-1.673 3.197,-5.02c0.852,-3.346 1.278,-7.096 1.278,-11.252c0,-4.156 -0.469,-8.323 -1.406,-12.5c-1.279,0.341 -2.472,0.512 -3.581,0.512Zm0.959,-9.591c1.236,-2.046 2.366,-4.465 3.389,-7.257c1.023,-2.792 1.534,-5.125 1.534,-7.001c0,-1.875 -0.191,-2.813 -0.575,-2.813c-0.682,-0 -1.417,1.556 -2.206,4.667c-0.788,3.112 -1.502,7.246 -2.142,12.404Zm0,2.558l-0.383,0.639l-0.32,3.261c0.554,0.17 1.055,0.255 1.503,0.255c0.447,0 0.82,-0.021 1.118,-0.064c-0.554,-1.662 -1.193,-3.026 -1.918,-4.091Zm-3.964,-2.046c-0.639,0.213 -0.959,0.703 -0.959,1.47c0,0.767 0.171,1.428 0.512,1.982c0.17,-1.534 0.319,-2.685 0.447,-3.452Z" style="fill:#289925;fill-rule:nonzero;"/>
                    <path d="M132.299,248.677c-0,-0.767 0.405,-1.428 1.214,-1.982c0.81,-0.554 1.535,-0.831 2.174,-0.831c1.151,0 1.727,0.661 1.727,1.982c-0,1.322 -0.341,2.462 -1.023,3.421c-0.682,0.959 -1.642,1.438 -2.878,1.438c-0.809,0 -1.214,-1.342 -1.214,-4.028Zm1.854,31.585c-1.663,0 -2.92,-0.341 -3.773,-1.023c-0.298,-0.298 -0.447,-1.364 -0.447,-3.197c-0,-1.833 0.138,-4.891 0.416,-9.175c0.277,-4.283 0.522,-6.596 0.735,-6.937c0.213,-0.341 0.874,-0.98 1.982,-1.918c1.108,-0.938 1.971,-1.407 2.589,-1.407c0.618,0 0.927,0.81 0.927,2.43c0,0.426 -0.117,1.257 -0.351,2.494c-0.235,1.236 -0.501,2.131 -0.8,2.685c-0.554,1.407 -0.831,5.094 -0.831,11.061c0,1.151 0.128,1.726 0.384,1.726c0.725,-0.042 1.726,-0.948 3.005,-2.717c1.279,-1.769 2.547,-4.039 3.804,-6.809c1.258,-2.771 2.025,-4.156 2.302,-4.156c0.277,-0 0.415,0.17 0.415,0.511c0,1.194 -0.618,3.091 -1.854,5.691c-3.367,7.161 -6.202,10.741 -8.503,10.741Z" style="fill:#289925;fill-rule:nonzero;"/>
                    <path d="M152.566,264.406l0.512,-3.261c-0,-0.469 -0.149,-0.895 -0.448,-1.279c-0.298,-0.383 -0.682,-0.575 -1.15,-0.575c-1.578,-0 -2.942,1.183 -4.092,3.548c-1.151,2.366 -1.727,4.636 -1.727,6.81c0,2.173 0.448,3.932 1.343,5.274c0.895,1.343 1.993,2.014 3.293,2.014c1.3,0 2.461,-0.298 3.484,-0.895c1.023,-0.597 1.961,-1.449 2.813,-2.557c1.791,-2.345 3.325,-5.009 4.604,-7.992c0.341,-0.768 0.607,-1.322 0.799,-1.663c0.192,-0.341 0.405,-0.511 0.639,-0.511c0.235,-0 0.352,0.17 0.352,0.511c0,1.407 -0.49,3.091 -1.47,5.051c-0.981,1.961 -1.801,3.464 -2.462,4.508c-0.661,1.044 -1.502,2.142 -2.525,3.293c-2.132,2.387 -4.796,3.58 -7.993,3.58c-2.429,0 -4.273,-0.863 -5.53,-2.589c-1.257,-1.727 -1.886,-3.57 -1.886,-5.531c-0,-4.859 1.055,-8.557 3.165,-11.093c2.11,-2.536 4.784,-3.804 8.024,-3.804c1.364,-0 2.44,0.351 3.229,1.055c0.788,0.703 1.182,1.502 1.182,2.397c0,1.663 -0.298,2.899 -0.895,3.709c-0.596,0.81 -1.321,1.215 -2.174,1.215c-0.724,-0 -1.087,-0.405 -1.087,-1.215Z" style="fill:#289925;fill-rule:nonzero;"/>
                    <path d="M177.374,280.262c-1.662,0 -2.92,-0.341 -3.772,-1.023c-0.299,-0.298 -0.448,-1.055 -0.448,-2.27c0,-1.215 0.043,-2.845 0.128,-4.891c-1.108,2.771 -2.206,4.827 -3.293,6.17c-1.087,1.343 -2.483,2.014 -4.188,2.014c-1.705,0 -3.196,-0.799 -4.475,-2.398c-1.279,-1.598 -1.918,-4.113 -1.918,-7.544c-0,-3.431 0.969,-6.468 2.909,-9.111c1.939,-2.643 4.486,-3.964 7.64,-3.964c1.364,-0 2.899,0.895 4.604,2.685c0.341,-0.469 0.948,-1.033 1.822,-1.694c0.874,-0.661 1.62,-0.991 2.238,-0.991c0.618,-0 0.927,0.81 0.927,2.429c-0,0.427 -0.117,1.258 -0.352,2.494c-0.234,1.236 -0.501,2.131 -0.799,2.685c-0.384,0.981 -0.576,4.455 -0.576,10.422c0,1.151 0.128,1.726 0.384,1.726c0.725,-0.042 1.726,-0.948 3.005,-2.717c1.279,-1.769 2.547,-4.039 3.804,-6.809c1.258,-2.771 2.025,-4.156 2.302,-4.156c0.277,-0 0.416,0.17 0.416,0.511c-0,1.194 -0.618,3.091 -1.855,5.691c-3.367,7.161 -6.201,10.741 -8.503,10.741Zm-7.8,-20.46c-1.194,0 -2.462,0.885 -3.805,2.654c-1.342,1.769 -2.014,3.847 -2.014,6.233c0,2.387 0.352,4.348 1.055,5.883c0.704,1.534 1.631,2.301 2.782,2.301c1.406,0 3.473,-3.516 6.201,-10.549c0.043,-0.341 0.096,-0.927 0.16,-1.758c0.064,-0.832 0.117,-1.46 0.16,-1.887c-0.383,-0.682 -1.055,-1.332 -2.014,-1.95c-0.959,-0.618 -1.801,-0.927 -2.525,-0.927Z" style="fill:#289925;fill-rule:nonzero;"/>
                    <path d="M198.217,269.521c-3.367,7.161 -6.212,10.741 -8.535,10.741c-2.323,0 -3.687,-0.277 -4.092,-0.831c-0.405,-0.554 -0.608,-2.387 -0.608,-5.499c0,-3.111 0.299,-7.608 0.895,-13.49c-2.131,-0.427 -3.26,-1.3 -3.388,-2.622c-0,-0.682 0.447,-1.023 1.342,-1.023c0.896,0 1.684,0.171 2.366,0.512c0.384,-3.069 0.831,-6.181 1.343,-9.335c0.128,-0.81 0.533,-1.577 1.215,-2.302c0.682,-0.724 1.342,-1.087 1.982,-1.087c0.554,0 0.831,0.874 0.831,2.622c-0,0.81 -0.299,4.539 -0.895,11.189c1.151,-0.213 2.419,-0.64 3.804,-1.279c1.385,-0.639 2.206,-0.959 2.461,-0.959c0.768,-0 1.151,0.234 1.151,0.703c0.043,0.426 -0.746,1.013 -2.365,1.758c-1.62,0.746 -3.368,1.311 -5.243,1.695c-0.512,6.223 -0.767,10.933 -0.767,14.13c-0,1.705 0.255,2.557 0.767,2.557c0.767,-0.042 1.79,-0.937 3.069,-2.685c1.279,-1.748 2.547,-4.017 3.804,-6.809c1.257,-2.792 2.025,-4.188 2.302,-4.188c0.277,-0 0.415,0.17 0.415,0.511c0,1.194 -0.618,3.091 -1.854,5.691Z" style="fill:#289925;fill-rule:nonzero;"/>
                    <path d="M204.547,280.262c-2.387,0 -4.284,-0.906 -5.69,-2.717c-1.407,-1.812 -2.11,-3.868 -2.11,-6.17c-0,-4.646 0.98,-8.163 2.941,-10.55c1.96,-2.387 4.497,-3.58 7.608,-3.58c1.449,-0 2.643,0.394 3.581,1.183c0.937,0.788 1.406,1.864 1.406,3.228c0,2.558 -1.076,4.7 -3.229,6.426c-2.152,1.726 -4.784,2.632 -7.896,2.717c0.171,1.663 0.736,3.101 1.695,4.316c0.959,1.215 2.078,1.822 3.356,1.822c1.279,0 2.43,-0.298 3.453,-0.895c1.023,-0.597 1.961,-1.449 2.813,-2.557c1.79,-2.345 3.325,-5.009 4.604,-7.992c0.341,-0.768 0.607,-1.322 0.799,-1.663c0.192,-0.341 0.405,-0.511 0.639,-0.511c0.235,-0 0.352,0.17 0.352,0.511c-0,2.132 -1.3,5.328 -3.9,9.591c-2.814,4.561 -6.287,6.841 -10.422,6.841Zm-3.389,-10.997c2.515,-0.426 4.359,-1.236 5.531,-2.43c1.172,-1.193 1.758,-2.749 1.758,-4.667c0,-1.918 -0.618,-2.877 -1.854,-2.877c-1.492,-0 -2.749,1.033 -3.772,3.101c-1.023,2.067 -1.577,4.358 -1.663,6.873Z" style="fill:#289925;fill-rule:nonzero;"/>
                    <path d="M233.702,280.262c-1.449,0 -2.579,-0.32 -3.389,-0.959c-0.341,-0.341 -0.511,-1.236 -0.511,-2.685c-0,-1.45 0.064,-3.346 0.192,-5.691c-1.151,3.069 -2.323,5.392 -3.517,6.969c-1.193,1.577 -2.696,2.366 -4.507,2.366c-1.812,0 -3.346,-0.789 -4.604,-2.366c-1.257,-1.577 -1.886,-4.092 -1.886,-7.544c0,-3.453 0.97,-6.5 2.909,-9.143c1.94,-2.643 4.486,-3.964 7.641,-3.964c1.534,-0 3.133,0.597 4.795,1.79c0.682,-8.312 1.3,-13 1.854,-14.066c0.256,-0.469 0.863,-1.151 1.822,-2.046c0.959,-0.895 1.759,-1.343 2.398,-1.343c0.639,0 0.959,1.002 0.959,3.005c-0,2.345 -0.213,4.369 -0.639,6.074c-1.151,4.391 -1.876,7.183 -2.174,8.376c-0.597,4.603 -0.895,10.017 -0.895,16.24c-0,1.151 0.127,1.726 0.383,1.726c0.767,-0.042 1.79,-0.937 3.069,-2.685c1.279,-1.748 2.547,-4.017 3.804,-6.809c1.258,-2.792 2.025,-4.188 2.302,-4.188c0.277,-0 0.416,0.17 0.416,0.511c-0,1.194 -0.618,3.091 -1.854,5.691c-3.368,7.161 -6.224,10.741 -8.568,10.741Zm-8.056,-20.715c-1.151,-0 -2.302,0.916 -3.453,2.749c-1.15,1.833 -1.726,3.953 -1.726,6.362c0,2.408 0.309,4.379 0.927,5.914c0.618,1.534 1.396,2.301 2.334,2.301c1.918,0 4.113,-3.836 6.585,-11.508c0.214,-2.345 0.32,-3.73 0.32,-4.156c-1.236,-1.108 -2.898,-1.662 -4.987,-1.662Z" style="fill:#289925;fill-rule:nonzero;"/>
                    <path d="M279.609,269.393c0.298,-0.426 0.724,-1.172 1.278,-2.238c1.364,-2.43 2.185,-3.644 2.462,-3.644c0.277,-0 0.415,0.17 0.415,0.511c0,2.089 -1.087,4.731 -3.26,7.928c-3.922,5.755 -9.143,8.632 -15.665,8.632c-1.833,-0 -3.516,-0.427 -5.051,-1.279c-1.534,-0.853 -2.749,-1.939 -3.644,-3.261c-1.833,-2.685 -2.749,-5.498 -2.749,-8.439c-0,-7.417 1.928,-13.395 5.786,-17.935c3.857,-4.539 8.429,-6.809 13.714,-6.809c2.004,0 3.645,0.586 4.923,1.758c1.279,1.173 1.918,2.654 1.918,4.444c0,1.79 -0.447,3.453 -1.342,4.987c-0.895,1.534 -1.972,2.302 -3.229,2.302c-1.257,-0 -1.886,-0.341 -1.886,-1.023c-0,-0.768 0.415,-1.641 1.247,-2.622c0.831,-0.98 1.246,-1.96 1.246,-2.941c0,-3.026 -1.609,-4.539 -4.827,-4.539c-3.218,-0 -6.127,2.152 -8.727,6.457c-2.6,4.305 -3.9,8.738 -3.9,13.299c-0,3.154 0.895,5.957 2.685,8.408c1.79,2.451 4.305,3.676 7.544,3.676c3.837,0 7.524,-2.557 11.062,-7.672Z" style="fill:#289925;fill-rule:nonzero;"/>
                    <path d="M297.703,280.262c-1.663,0 -2.92,-0.341 -3.773,-1.023c-0.298,-0.298 -0.447,-1.055 -0.447,-2.27c-0,-1.215 0.042,-2.845 0.128,-4.891c-1.109,2.771 -2.206,4.827 -3.293,6.17c-1.087,1.343 -2.483,2.014 -4.188,2.014c-1.705,0 -3.197,-0.799 -4.476,-2.398c-1.278,-1.598 -1.918,-4.113 -1.918,-7.544c0,-3.431 0.97,-6.468 2.91,-9.111c1.939,-2.643 4.486,-3.964 7.64,-3.964c1.364,-0 2.898,0.895 4.603,2.685c0.341,-0.469 0.949,-1.033 1.823,-1.694c0.873,-0.661 1.619,-0.991 2.237,-0.991c0.618,-0 0.927,0.81 0.927,2.429c0,0.427 -0.117,1.258 -0.351,2.494c-0.235,1.236 -0.501,2.131 -0.799,2.685c-0.384,0.981 -0.576,4.455 -0.576,10.422c0,1.151 0.128,1.726 0.384,1.726c0.724,-0.042 1.726,-0.948 3.005,-2.717c1.279,-1.769 2.547,-4.039 3.804,-6.809c1.257,-2.771 2.025,-4.156 2.302,-4.156c0.277,-0 0.415,0.17 0.415,0.511c0,1.194 -0.618,3.091 -1.854,5.691c-3.367,7.161 -6.202,10.741 -8.503,10.741Zm-7.801,-20.46c-1.193,0 -2.461,0.885 -3.804,2.654c-1.343,1.769 -2.014,3.847 -2.014,6.233c0,2.387 0.352,4.348 1.055,5.883c0.703,1.534 1.63,2.301 2.781,2.301c1.407,0 3.474,-3.516 6.202,-10.549c0.043,-0.341 0.096,-0.927 0.16,-1.758c0.064,-0.832 0.117,-1.46 0.16,-1.887c-0.384,-0.682 -1.055,-1.332 -2.014,-1.95c-0.959,-0.618 -1.801,-0.927 -2.526,-0.927Z" style="fill:#289925;fill-rule:nonzero;"/>
                    <path d="M309.531,276.49l0.064,1.982c-0,1.193 -0.341,1.79 -1.023,1.79c-1.023,0 -2.004,-0.139 -2.941,-0.416c-0.938,-0.277 -1.407,-0.66 -1.407,-1.15c0,-0.491 0.117,-2.174 0.352,-5.051c0.234,-2.878 0.351,-5.041 0.351,-6.49l0,-3.772c0,-2.046 0.214,-3.282 0.64,-3.709c0.426,-0.426 1.183,-1.044 2.27,-1.854c1.086,-0.81 1.875,-1.215 2.365,-1.215c0.49,0 0.799,0.086 0.927,0.256c0.128,0.171 0.192,0.49 0.192,0.959c0,2.259 -0.426,4.391 -1.279,6.394c-0.213,2.43 -0.319,4.113 -0.319,5.051c2.259,-4.22 3.836,-6.99 4.731,-8.312c1.577,-2.472 3.005,-3.708 4.284,-3.708c0.81,-0 1.566,0.32 2.269,0.959c0.704,0.639 1.055,1.428 1.055,2.366c0,0.937 -0.01,1.822 -0.032,2.653c-0.021,0.831 -0.053,1.481 -0.095,1.95c-0.043,0.469 -0.064,0.767 -0.064,0.895c0.17,-0.341 0.895,-1.3 2.173,-2.877c1.279,-1.577 2.142,-2.6 2.59,-3.069c0.447,-0.469 0.927,-0.938 1.438,-1.407c0.981,-0.98 1.865,-1.47 2.654,-1.47c0.788,-0 1.534,0.298 2.238,0.895c0.703,0.597 1.055,1.343 1.055,2.238c-0,1.875 -0.203,4.635 -0.608,8.28c-0.405,3.644 -0.607,5.946 -0.607,6.905c-0,0.959 0.128,1.438 0.383,1.438c0.725,-0.042 1.727,-0.948 3.005,-2.717c1.279,-1.769 2.547,-4.039 3.805,-6.809c1.257,-2.771 2.024,-4.156 2.301,-4.156c0.277,-0 0.416,0.17 0.416,0.511c-0,1.194 -0.618,3.091 -1.854,5.691c-3.368,7.161 -6.202,10.741 -8.504,10.741c-1.449,0 -2.6,-0.341 -3.452,-1.023c-0.299,-0.298 -0.448,-1.076 -0.448,-2.334c0,-1.257 0.117,-3.303 0.352,-6.138c0.234,-2.834 0.351,-4.955 0.351,-6.361c0,-1.407 -0.234,-2.11 -0.703,-2.11c-0.554,-0 -1.758,0.938 -3.612,2.813c-1.854,1.876 -2.846,3.197 -2.973,3.964c-0.256,1.449 -0.384,4.582 -0.384,9.399c0,1.193 -0.32,1.79 -0.959,1.79c-0.98,0 -1.907,-0.139 -2.781,-0.416c-0.874,-0.277 -1.311,-0.66 -1.311,-1.15c0,-0.491 0.128,-2.59 0.384,-6.298c0.255,-3.709 0.383,-6.319 0.383,-7.832c0,-1.514 -0.245,-2.27 -0.735,-2.27c-0.49,-0 -1.673,1.46 -3.548,4.379c-1.876,2.92 -2.91,4.956 -3.101,6.106c-0.192,1.151 -0.288,2.387 -0.288,3.709Z" style="fill:#289925;fill-rule:nonzero;"/>
                    <path d="M340.86,260.058c0.469,-0.554 1.215,-1.268 2.238,-2.142c1.023,-0.874 1.832,-1.311 2.429,-1.311c0.597,0 0.895,0.842 0.895,2.526c0,1.684 -0.447,3.335 -1.342,4.955c-0.171,0.767 -0.299,1.876 -0.384,3.325c1.236,-3.368 2.472,-5.904 3.708,-7.609c1.236,-1.705 2.739,-2.557 4.508,-2.557c1.769,-0 3.314,0.799 4.635,2.397c1.322,1.599 1.982,4.114 1.982,7.545c0,3.431 -0.969,6.468 -2.909,9.111c-1.939,2.643 -4.486,3.964 -7.64,3.964c-1.62,0 -3.261,-0.597 -4.923,-1.79c-0,8.141 -0.469,14.343 -1.407,18.605c-0.085,0.384 -0.65,1.034 -1.694,1.95c-1.045,0.917 -1.812,1.375 -2.302,1.375c-0.49,0 -0.842,-0.341 -1.055,-1.023c-0.213,-0.682 -0.32,-1.321 -0.32,-1.918c0,-4.39 0.895,-10.038 2.686,-16.943c0.298,-4.007 0.501,-8.397 0.607,-13.171c0.107,-4.774 0.203,-7.204 0.288,-7.289Zm8.503,17.902c1.236,0 2.515,-0.863 3.837,-2.589c1.321,-1.726 1.982,-3.858 1.982,-6.394c-0,-2.536 -0.352,-4.561 -1.055,-6.074c-0.704,-1.513 -1.652,-2.27 -2.846,-2.27c-2.046,0 -4.369,4.242 -6.969,12.724c-0.085,1.193 -0.127,2.131 -0.127,2.813c1.193,1.194 2.919,1.79 5.178,1.79Z" style="fill:#289925;fill-rule:nonzero;"/>
                    <path d="M371.358,260.378l0.127,-0.959c0,-0.768 -0.436,-1.151 -1.31,-1.151c-0.874,-0 -1.716,0.565 -2.526,1.694c-0.81,1.13 -1.215,2.057 -1.215,2.781c0,0.725 0.043,1.3 0.128,1.727c0.086,0.426 0.181,0.778 0.288,1.055c0.107,0.277 0.288,0.607 0.543,0.991c0.256,0.383 0.448,0.66 0.576,0.831l0.703,0.895c0.299,0.426 0.512,0.703 0.64,0.831c2.216,-1.833 4.859,-3.879 7.928,-6.138c0.17,-0.128 0.362,-0.192 0.575,-0.192c0.426,0 0.64,0.235 0.64,0.704c-0,0.469 -0.192,0.831 -0.576,1.087c-2.728,1.747 -5.307,3.644 -7.736,5.69c0.938,1.364 1.406,2.856 1.406,4.476c0,1.619 -0.618,3.005 -1.854,4.155c-1.236,1.151 -2.813,1.727 -4.731,1.727c-1.918,-0 -2.877,-0.917 -2.877,-2.75c-0,-1.321 1.406,-3.346 4.22,-6.074c-0.214,-0.255 -0.597,-0.671 -1.151,-1.246c-0.554,-0.576 -0.97,-1.034 -1.247,-1.375c-0.277,-0.341 -0.607,-0.789 -0.991,-1.343c-0.682,-1.065 -1.023,-2.216 -1.023,-3.452c-0,-2.515 0.81,-4.55 2.43,-6.106c1.619,-1.556 3.346,-2.334 5.178,-2.334c1.151,0 2.046,0.309 2.686,0.927c0.639,0.618 0.959,1.247 0.959,1.886c-0,1.45 -0.341,2.174 -1.023,2.174c-0.512,0 -0.767,-0.17 -0.767,-0.511Zm-4.092,12.595c-1.705,1.705 -2.558,3.08 -2.558,4.124c0,1.044 0.533,1.567 1.599,1.567c0.639,-0 1.172,-0.256 1.598,-0.768c0.938,-1.278 0.725,-2.919 -0.639,-4.923Z" style="fill:#289925;fill-rule:nonzero;"/>
                    <path d="M377.559,248.677c0,-0.767 0.405,-1.428 1.215,-1.982c0.81,-0.554 1.535,-0.831 2.174,-0.831c1.151,0 1.726,0.661 1.726,1.982c0,1.322 -0.341,2.462 -1.023,3.421c-0.682,0.959 -1.641,1.438 -2.877,1.438c-0.81,0 -1.215,-1.342 -1.215,-4.028Zm1.855,31.585c-1.663,0 -2.92,-0.341 -3.773,-1.023c-0.298,-0.298 -0.447,-1.364 -0.447,-3.197c-0,-1.833 0.138,-4.891 0.415,-9.175c0.277,-4.283 0.522,-6.596 0.736,-6.937c0.213,-0.341 0.873,-0.98 1.982,-1.918c1.108,-0.938 1.971,-1.407 2.589,-1.407c0.618,0 0.927,0.81 0.927,2.43c0,0.426 -0.117,1.257 -0.351,2.494c-0.235,1.236 -0.501,2.131 -0.8,2.685c-0.554,1.407 -0.831,5.094 -0.831,11.061c0,1.151 0.128,1.726 0.384,1.726c0.724,-0.042 1.726,-0.948 3.005,-2.717c1.279,-1.769 2.547,-4.039 3.804,-6.809c1.257,-2.771 2.025,-4.156 2.302,-4.156c0.277,-0 0.415,0.17 0.415,0.511c0,1.194 -0.618,3.091 -1.854,5.691c-3.367,7.161 -6.202,10.741 -8.503,10.741Z" style="fill:#289925;fill-rule:nonzero;"/>
                    <path d="M400.704,269.521c-3.367,7.161 -6.212,10.741 -8.535,10.741c-2.323,0 -3.687,-0.277 -4.092,-0.831c-0.405,-0.554 -0.607,-2.387 -0.607,-5.499c-0,-3.111 0.298,-7.608 0.895,-13.49c-2.132,-0.427 -3.261,-1.3 -3.389,-2.622c0,-0.682 0.448,-1.023 1.343,-1.023c0.895,0 1.683,0.171 2.365,0.512c0.384,-3.069 0.832,-6.181 1.343,-9.335c0.128,-0.81 0.533,-1.577 1.215,-2.302c0.682,-0.724 1.343,-1.087 1.982,-1.087c0.554,0 0.831,0.874 0.831,2.622c0,0.81 -0.298,4.539 -0.895,11.189c1.151,-0.213 2.419,-0.64 3.804,-1.279c1.385,-0.639 2.206,-0.959 2.462,-0.959c0.767,-0 1.151,0.234 1.151,0.703c0.042,0.426 -0.746,1.013 -2.366,1.758c-1.62,0.746 -3.367,1.311 -5.243,1.695c-0.511,6.223 -0.767,10.933 -0.767,14.13c-0,1.705 0.256,2.557 0.767,2.557c0.767,-0.042 1.79,-0.937 3.069,-2.685c1.279,-1.748 2.547,-4.017 3.804,-6.809c1.258,-2.792 2.025,-4.188 2.302,-4.188c0.277,-0 0.416,0.17 0.416,0.511c-0,1.194 -0.618,3.091 -1.855,5.691Z" style="fill:#289925;fill-rule:nonzero;"/>
                    <path d="M407.034,280.262c-2.387,0 -4.284,-0.906 -5.69,-2.717c-1.407,-1.812 -2.11,-3.868 -2.11,-6.17c-0,-4.646 0.98,-8.163 2.941,-10.55c1.961,-2.387 4.497,-3.58 7.608,-3.58c1.45,-0 2.643,0.394 3.581,1.183c0.938,0.788 1.407,1.864 1.407,3.228c-0,2.558 -1.077,4.7 -3.229,6.426c-2.153,1.726 -4.785,2.632 -7.896,2.717c0.17,1.663 0.735,3.101 1.694,4.316c0.959,1.215 2.078,1.822 3.357,1.822c1.278,0 2.429,-0.298 3.452,-0.895c1.023,-0.597 1.961,-1.449 2.813,-2.557c1.791,-2.345 3.325,-5.009 4.604,-7.992c0.341,-0.768 0.607,-1.322 0.799,-1.663c0.192,-0.341 0.405,-0.511 0.639,-0.511c0.235,-0 0.352,0.17 0.352,0.511c-0,2.132 -1.3,5.328 -3.9,9.591c-2.813,4.561 -6.287,6.841 -10.422,6.841Zm-3.388,-10.997c2.514,-0.426 4.358,-1.236 5.53,-2.43c1.172,-1.193 1.758,-2.749 1.758,-4.667c0,-1.918 -0.618,-2.877 -1.854,-2.877c-1.492,-0 -2.749,1.033 -3.772,3.101c-1.023,2.067 -1.577,4.358 -1.662,6.873Z" style="fill:#289925;fill-rule:nonzero;"/>
                </g>
                <path d="M215,54.24c-0,-18.346 -14.894,-33.24 -33.24,-33.24l-128.52,-0c-18.346,-0 -33.24,14.894 -33.24,33.24l-0,128.52c-0,18.346 14.894,33.24 33.24,33.24l128.52,0c18.346,0 33.24,-14.894 33.24,-33.24l-0,-128.52Z" style="fill:#289925;"/>
                <path d="M103,38l7,-0l7,13l8,-13l7,-0l-12,18l63,115l16,-0l-0,4l-163,-0l-0,-4l15,-0l63,-115l-11,-18Z" style="fill:#fff;"/>
                <g>
                    <path d="M123.357,175c0.098,1.767 0.256,3.533 0.221,5.302c-0.154,7.791 -3.445,22.122 -16.267,17.211c-8.156,-3.124 -3.035,-18.011 -1.311,-21.513c0.16,-0.325 0.325,-0.659 0.494,-1l16.863,-0Z" style="fill:#fff;"/>
                </g>
                <path d="M106.421,175.148c2.653,-5.367 6.295,-12.75 5.434,-18.648c-1.137,-7.794 -11.226,-4.478 -13.813,-14.604c-1.083,-4.241 0.869,-11.501 6.523,-10.982c4.125,0.379 7.725,5.197 10.777,7.327c3.559,2.484 12.954,4.065 14.304,8.955c1.401,5.074 -5.325,13.482 -6.045,17.225c-0.52,2.702 -0.314,5.498 -0.318,8.25c-0.001,0.826 0.035,1.652 0.082,2.477l-16.944,-0Zm26.131,-39.724c0.883,0.706 0.769,2.317 -0.253,3.596c-1.022,1.278 -2.569,1.743 -3.452,1.038c-0.883,-0.706 -0.769,-2.317 0.253,-3.596c1.023,-1.279 2.569,-1.744 3.452,-1.038Zm-4.826,-4.662c1.054,0.627 1.075,2.542 0.046,4.275c-1.03,1.732 -2.721,2.631 -3.776,2.004c-1.055,-0.626 -1.075,-2.541 -0.046,-4.274c1.029,-1.733 2.721,-2.631 3.776,-2.005Zm-4.933,-4.981c1.1,0.542 1.27,2.45 0.379,4.258c-0.892,1.807 -2.509,2.834 -3.609,2.292c-1.1,-0.542 -1.269,-2.45 -0.378,-4.258c0.892,-1.807 2.508,-2.835 3.608,-2.292Zm-5.619,-5.294c1.353,0.484 1.775,2.767 0.941,5.094c-0.833,2.326 -2.609,3.821 -3.962,3.337c-1.353,-0.485 -1.774,-2.768 -0.941,-5.094c0.834,-2.327 2.609,-3.822 3.962,-3.337Zm-7.02,-7.101c2.673,1.003 3.646,5.009 2.17,8.941c-1.475,3.932 -4.844,6.31 -7.517,5.307c-2.673,-1.003 -3.645,-5.01 -2.17,-8.942c1.476,-3.932 4.844,-6.309 7.517,-5.306Z" style="fill:#289925;"/>
            </g>
        </g>
        <g>
            <path d="M263.853,31.488l-9.673,-0l0,24.981l-7.987,0l-0,-24.981l-9.672,-0l-0,-5.991l27.332,-0l-0,5.991Z" style="fill:#747474;fill-rule:nonzero;"/>
            <path d="M287.956,56.469l-7.529,0l-0,-11.586c-0,-0.943 -0.049,-1.882 -0.146,-2.818c-0.097,-0.936 -0.264,-1.626 -0.499,-2.07c-0.278,-0.513 -0.683,-0.887 -1.217,-1.123c-0.534,-0.236 -1.279,-0.354 -2.236,-0.354c-0.68,0 -1.37,0.111 -2.07,0.333c-0.7,0.222 -1.459,0.576 -2.278,1.061l0,16.557l-7.488,0l0,-32.366l7.488,0l0,11.586c1.332,-1.04 2.611,-1.837 3.838,-2.392c1.227,-0.554 2.59,-0.832 4.088,-0.832c2.523,0 4.496,0.735 5.917,2.205c1.422,1.47 2.132,3.668 2.132,6.594l0,15.205Z" style="fill:#747474;fill-rule:nonzero;"/>
            <path d="M314.098,46.173l-17.139,-0c0.111,1.83 0.807,3.231 2.09,4.202c1.283,0.97 3.172,1.456 5.668,1.456c1.581,-0 3.113,-0.284 4.597,-0.853c1.484,-0.569 2.656,-1.179 3.516,-1.831l0.832,0l-0,6.012c-1.692,0.679 -3.287,1.172 -4.785,1.477c-1.497,0.305 -3.154,0.457 -4.971,0.457c-4.687,0 -8.279,-1.053 -10.775,-3.161c-2.496,-2.108 -3.744,-5.11 -3.744,-9.007c0,-3.855 1.182,-6.909 3.547,-9.163c2.364,-2.253 5.605,-3.38 9.724,-3.38c3.8,-0 6.656,0.96 8.57,2.881c1.914,1.921 2.87,4.684 2.87,8.289l0,2.621Zm-7.446,-4.389c-0.042,-1.567 -0.43,-2.746 -1.165,-3.536c-0.735,-0.791 -1.879,-1.186 -3.432,-1.186c-1.442,0 -2.628,0.375 -3.557,1.123c-0.929,0.749 -1.449,1.949 -1.56,3.599l9.714,-0Z" style="fill:#747474;fill-rule:nonzero;"/>
            <path d="M266.015,104.875c-1.387,0.541 -3.224,1.078 -5.513,1.612c-2.288,0.534 -4.569,0.801 -6.843,0.801c-5.27,-0 -9.395,-1.432 -12.377,-4.296c-2.981,-2.863 -4.472,-6.819 -4.472,-11.867c0,-4.811 1.505,-8.691 4.514,-11.638c3.009,-2.946 7.204,-4.42 12.585,-4.42c2.038,0 3.979,0.184 5.824,0.551c1.844,0.368 3.896,1.099 6.157,2.195l-0,7.259l-0.895,0c-0.388,-0.291 -0.956,-0.703 -1.705,-1.237c-0.749,-0.534 -1.47,-0.988 -2.164,-1.363c-0.804,-0.443 -1.743,-0.825 -2.818,-1.144c-1.075,-0.319 -2.215,-0.478 -3.422,-0.478c-1.414,-0 -2.697,0.208 -3.848,0.624c-1.151,0.416 -2.184,1.054 -3.099,1.914c-0.874,0.832 -1.564,1.889 -2.07,3.172c-0.506,1.282 -0.759,2.763 -0.759,4.441c-0,3.425 0.908,6.046 2.725,7.862c1.816,1.817 4.5,2.725 8.05,2.725c0.305,0 0.641,-0.007 1.008,-0.021c0.368,-0.013 0.704,-0.034 1.009,-0.062l0,-6.074l-6.178,0l0,-5.845l14.291,0l-0,15.289Z" style="fill:#747474;fill-rule:nonzero;"/>
            <path d="M286.937,90.418l-0.665,0c-0.319,-0.111 -0.832,-0.194 -1.54,-0.249c-0.707,-0.056 -1.296,-0.084 -1.768,-0.084c-1.068,0 -2.011,0.07 -2.829,0.208c-0.818,0.139 -1.698,0.375 -2.641,0.708l-0,15.642l-7.489,-0l0,-23.359l7.489,-0l-0,3.432c1.65,-1.415 3.085,-2.354 4.305,-2.819c1.221,-0.464 2.344,-0.697 3.37,-0.697c0.264,0 0.562,0.007 0.895,0.021c0.332,0.014 0.624,0.035 0.873,0.063l0,7.134Z" style="fill:#747474;fill-rule:nonzero;"/>
            <path d="M310.438,96.346l-17.14,0c0.111,1.831 0.807,3.232 2.09,4.202c1.283,0.971 3.172,1.456 5.668,1.456c1.581,0 3.114,-0.284 4.597,-0.853c1.484,-0.568 2.656,-1.178 3.516,-1.83l0.832,0l-0,6.011c-1.692,0.68 -3.287,1.172 -4.784,1.477c-1.498,0.305 -3.155,0.458 -4.972,0.458c-4.687,-0 -8.279,-1.054 -10.775,-3.162c-2.496,-2.108 -3.744,-5.11 -3.744,-9.007c0,-3.855 1.182,-6.909 3.547,-9.162c2.364,-2.254 5.605,-3.38 9.724,-3.38c3.8,-0 6.656,0.96 8.57,2.88c1.914,1.921 2.871,4.684 2.871,8.29l-0,2.62Zm-7.447,-4.389c-0.042,-1.567 -0.43,-2.745 -1.165,-3.536c-0.735,-0.79 -1.879,-1.185 -3.432,-1.185c-1.442,-0 -2.628,0.374 -3.557,1.123c-0.929,0.749 -1.449,1.948 -1.56,3.598l9.714,0Z" style="fill:#747474;fill-rule:nonzero;"/>
            <path d="M334.978,96.346l-17.14,0c0.111,1.831 0.808,3.232 2.09,4.202c1.283,0.971 3.173,1.456 5.669,1.456c1.581,0 3.113,-0.284 4.597,-0.853c1.484,-0.568 2.655,-1.178 3.515,-1.83l0.832,0l0,6.011c-1.692,0.68 -3.286,1.172 -4.784,1.477c-1.498,0.305 -3.155,0.458 -4.972,0.458c-4.687,-0 -8.278,-1.054 -10.774,-3.162c-2.496,-2.108 -3.745,-5.11 -3.745,-9.007c0,-3.855 1.183,-6.909 3.547,-9.162c2.364,-2.254 5.606,-3.38 9.724,-3.38c3.8,-0 6.657,0.96 8.57,2.88c1.914,1.921 2.871,4.684 2.871,8.29l-0,2.62Zm-7.447,-4.389c-0.041,-1.567 -0.43,-2.745 -1.165,-3.536c-0.735,-0.79 -1.879,-1.185 -3.432,-1.185c-1.442,-0 -2.628,0.374 -3.557,1.123c-0.929,0.749 -1.449,1.948 -1.56,3.598l9.714,0Z" style="fill:#747474;fill-rule:nonzero;"/>
            <path d="M361.976,106.643l-7.53,-0l-0,-11.586c-0,-0.943 -0.049,-1.883 -0.146,-2.819c-0.097,-0.936 -0.263,-1.626 -0.499,-2.069c-0.277,-0.513 -0.683,-0.888 -1.217,-1.124c-0.534,-0.235 -1.279,-0.353 -2.236,-0.353c-0.679,-0 -1.369,0.111 -2.069,0.333c-0.701,0.221 -1.46,0.575 -2.278,1.06l-0,16.558l-7.488,-0l-0,-23.359l7.488,-0l-0,2.579c1.331,-1.04 2.61,-1.838 3.838,-2.392c1.227,-0.555 2.589,-0.832 4.087,-0.832c2.524,-0 4.496,0.735 5.918,2.205c1.421,1.47 2.132,3.667 2.132,6.593l-0,15.206Z" style="fill:#747474;fill-rule:nonzero;"/>
            <path d="M388.118,96.346l-17.14,0c0.111,1.831 0.808,3.232 2.091,4.202c1.282,0.971 3.172,1.456 5.668,1.456c1.581,0 3.113,-0.284 4.597,-0.853c1.484,-0.568 2.655,-1.178 3.515,-1.83l0.832,0l0,6.011c-1.692,0.68 -3.286,1.172 -4.784,1.477c-1.498,0.305 -3.155,0.458 -4.971,0.458c-4.688,-0 -8.279,-1.054 -10.775,-3.162c-2.496,-2.108 -3.744,-5.11 -3.744,-9.007c-0,-3.855 1.182,-6.909 3.546,-9.162c2.364,-2.254 5.606,-3.38 9.724,-3.38c3.8,-0 6.657,0.96 8.57,2.88c1.914,1.921 2.871,4.684 2.871,8.29l-0,2.62Zm-7.447,-4.389c-0.041,-1.567 -0.43,-2.745 -1.165,-3.536c-0.735,-0.79 -1.879,-1.185 -3.432,-1.185c-1.442,-0 -2.628,0.374 -3.557,1.123c-0.929,0.749 -1.449,1.948 -1.56,3.598l9.714,0Z" style="fill:#747474;fill-rule:nonzero;"/>
            <path d="M407.584,90.418l-0.665,0c-0.319,-0.111 -0.832,-0.194 -1.539,-0.249c-0.708,-0.056 -1.297,-0.084 -1.769,-0.084c-1.067,0 -2.01,0.07 -2.828,0.208c-0.819,0.139 -1.699,0.375 -2.642,0.708l-0,15.642l-7.488,-0l-0,-23.359l7.488,-0l-0,3.432c1.65,-1.415 3.085,-2.354 4.306,-2.819c1.22,-0.464 2.343,-0.697 3.369,-0.697c0.264,0 0.562,0.007 0.895,0.021c0.333,0.014 0.624,0.035 0.873,0.063l0,7.134Z" style="fill:#747474;fill-rule:nonzero;"/>
            <path d="M252.619,158.42c-2.302,-0 -4.427,-0.34 -6.376,-1.02c-1.948,-0.679 -3.622,-1.691 -5.023,-3.037c-1.401,-1.345 -2.486,-3.023 -3.255,-5.033c-0.77,-2.011 -1.155,-4.334 -1.155,-6.969c0,-2.454 0.368,-4.68 1.103,-6.677c0.735,-1.997 1.802,-3.709 3.203,-5.138c1.345,-1.372 3.013,-2.433 5.003,-3.182c1.99,-0.749 4.163,-1.123 6.521,-1.123c1.303,-0 2.478,0.073 3.525,0.218c1.047,0.146 2.015,0.336 2.902,0.572c0.929,0.264 1.772,0.558 2.527,0.884c0.756,0.326 1.418,0.628 1.987,0.905l-0,7.509l-0.915,0c-0.389,-0.333 -0.877,-0.728 -1.467,-1.186c-0.589,-0.457 -1.258,-0.908 -2.007,-1.352c-0.763,-0.443 -1.588,-0.818 -2.475,-1.123c-0.888,-0.305 -1.838,-0.457 -2.85,-0.457c-1.123,-0 -2.191,0.176 -3.203,0.53c-1.013,0.354 -1.949,0.939 -2.809,1.758c-0.818,0.79 -1.48,1.837 -1.986,3.141c-0.506,1.303 -0.759,2.884 -0.759,4.742c-0,1.942 0.274,3.564 0.821,4.868c0.548,1.303 1.238,2.329 2.07,3.078c0.846,0.763 1.789,1.307 2.829,1.633c1.04,0.326 2.066,0.489 3.079,0.489c0.97,-0 1.931,-0.146 2.88,-0.437c0.95,-0.291 1.827,-0.686 2.632,-1.186c0.679,-0.402 1.31,-0.832 1.893,-1.289c0.582,-0.458 1.06,-0.853 1.435,-1.186l0.832,0l-0,7.405c-0.777,0.347 -1.519,0.673 -2.226,0.978c-0.707,0.305 -1.449,0.568 -2.225,0.79c-1.013,0.291 -1.963,0.513 -2.85,0.666c-0.888,0.152 -2.108,0.229 -3.661,0.229Z" style="fill:#747474;fill-rule:nonzero;"/>
            <path d="M281.427,151.722l-0,-4.868c-1.013,0.084 -2.108,0.198 -3.287,0.344c-1.179,0.145 -2.073,0.315 -2.683,0.509c-0.749,0.236 -1.321,0.579 -1.716,1.03c-0.396,0.451 -0.593,1.043 -0.593,1.778c-0,0.486 0.041,0.881 0.125,1.186c0.083,0.305 0.291,0.596 0.624,0.874c0.319,0.277 0.7,0.482 1.144,0.613c0.443,0.132 1.137,0.198 2.08,0.198c0.749,-0 1.508,-0.153 2.277,-0.458c0.77,-0.305 1.446,-0.707 2.029,-1.206Zm-0,3.619c-0.403,0.305 -0.902,0.673 -1.498,1.103c-0.596,0.429 -1.158,0.769 -1.685,1.019c-0.735,0.333 -1.498,0.579 -2.288,0.738c-0.791,0.16 -1.657,0.239 -2.6,0.239c-2.219,0 -4.077,-0.686 -5.575,-2.059c-1.497,-1.373 -2.246,-3.127 -2.246,-5.262c-0,-1.706 0.381,-3.1 1.144,-4.181c0.762,-1.082 1.844,-1.935 3.245,-2.559c1.386,-0.624 3.106,-1.068 5.158,-1.331c2.053,-0.264 4.181,-0.458 6.386,-0.583l0,-0.124c0,-1.29 -0.527,-2.181 -1.581,-2.673c-1.054,-0.493 -2.607,-0.739 -4.659,-0.739c-1.234,0 -2.552,0.219 -3.952,0.655c-1.401,0.437 -2.406,0.774 -3.016,1.009l-0.687,0l0,-5.637c0.791,-0.208 2.077,-0.454 3.859,-0.738c1.782,-0.284 3.567,-0.427 5.356,-0.427c4.257,0 7.332,0.656 9.225,1.966c1.893,1.311 2.839,3.366 2.839,6.168l0,15.891l-7.425,0l-0,-2.475Z" style="fill:#747474;fill-rule:nonzero;"/>
            <path d="M313.828,141.259l0,16.557l-7.53,0l0,-11.669c0,-1.137 -0.028,-2.104 -0.083,-2.902c-0.056,-0.797 -0.208,-1.445 -0.458,-1.944c-0.249,-0.5 -0.627,-0.864 -1.133,-1.093c-0.506,-0.228 -1.217,-0.343 -2.132,-0.343c-0.735,0 -1.45,0.149 -2.143,0.447c-0.693,0.299 -1.317,0.614 -1.872,0.947l0,16.557l-7.488,0l-0,-23.359l7.488,0l0,2.579c1.29,-1.012 2.524,-1.802 3.703,-2.371c1.178,-0.568 2.482,-0.853 3.91,-0.853c1.539,0 2.898,0.343 4.077,1.03c1.179,0.686 2.101,1.695 2.767,3.026c1.497,-1.262 2.953,-2.253 4.368,-2.974c1.414,-0.721 2.801,-1.082 4.16,-1.082c2.524,0 4.441,0.756 5.751,2.268c1.311,1.511 1.966,3.688 1.966,6.531l0,15.205l-7.53,0l0,-11.669c0,-1.151 -0.024,-2.122 -0.073,-2.912c-0.048,-0.79 -0.197,-1.435 -0.447,-1.934c-0.236,-0.5 -0.61,-0.864 -1.123,-1.093c-0.513,-0.228 -1.234,-0.343 -2.163,-0.343c-0.624,0 -1.235,0.108 -1.831,0.323c-0.596,0.215 -1.324,0.572 -2.184,1.071Z" style="fill:#747474;fill-rule:nonzero;"/>
            <path d="M356.694,145.814c0,1.928 -0.295,3.682 -0.884,5.263c-0.589,1.581 -1.362,2.884 -2.319,3.911c-0.999,1.081 -2.129,1.899 -3.391,2.454c-1.262,0.555 -2.614,0.832 -4.056,0.832c-1.331,0 -2.461,-0.142 -3.391,-0.426c-0.929,-0.285 -1.879,-0.683 -2.849,-1.196l-0,9.734l-7.489,0l0,-31.929l7.489,0l-0,2.434c1.151,-0.915 2.326,-1.657 3.525,-2.226c1.2,-0.568 2.583,-0.853 4.15,-0.853c2.912,0 5.176,1.068 6.792,3.204c1.615,2.135 2.423,5.068 2.423,8.798Zm-7.717,0.146c-0,-2.274 -0.388,-3.924 -1.165,-4.951c-0.777,-1.026 -2.004,-1.539 -3.682,-1.539c-0.707,0 -1.435,0.108 -2.184,0.322c-0.749,0.215 -1.463,0.524 -2.142,0.926l-0,11.753c0.499,0.194 1.033,0.319 1.601,0.374c0.569,0.055 1.131,0.083 1.685,0.083c1.983,0 3.46,-0.579 4.431,-1.737c0.971,-1.158 1.456,-2.901 1.456,-5.231Z" style="fill:#747474;fill-rule:nonzero;"/>
            <path d="M366.842,157.816l-7.489,0l0,-23.359l7.489,0l-0,23.359Zm0.208,-26.687l-7.905,-0l0,-5.679l7.905,0l-0,5.679Z" style="fill:#747474;fill-rule:nonzero;"/>
            <path d="M395.629,157.816l-7.53,0l-0,-11.586c-0,-0.943 -0.049,-1.882 -0.146,-2.818c-0.097,-0.936 -0.263,-1.626 -0.499,-2.07c-0.277,-0.513 -0.683,-0.887 -1.217,-1.123c-0.534,-0.236 -1.279,-0.354 -2.236,-0.354c-0.68,0 -1.369,0.111 -2.07,0.333c-0.7,0.222 -1.459,0.576 -2.277,1.061l-0,16.557l-7.489,0l0,-23.359l7.489,0l-0,2.579c1.331,-1.04 2.61,-1.837 3.837,-2.392c1.228,-0.554 2.59,-0.832 4.088,-0.832c2.524,0 4.496,0.735 5.918,2.205c1.421,1.47 2.132,3.668 2.132,6.594l-0,15.205Z" style="fill:#747474;fill-rule:nonzero;"/>
            <path d="M421.479,155.133c0,2.191 -0.312,4.035 -0.936,5.533c-0.624,1.498 -1.497,2.67 -2.621,3.516c-1.123,0.859 -2.478,1.48 -4.066,1.861c-1.588,0.382 -3.38,0.572 -5.377,0.572c-1.623,0 -3.221,-0.097 -4.795,-0.291c-1.574,-0.194 -2.936,-0.43 -4.087,-0.707l-0,-5.845l0.915,-0c0.915,0.36 2.032,0.69 3.349,0.988c1.317,0.298 2.496,0.447 3.536,0.447c1.387,-0 2.514,-0.128 3.38,-0.385c0.867,-0.256 1.529,-0.62 1.987,-1.092c0.43,-0.444 0.742,-1.012 0.936,-1.706c0.194,-0.693 0.291,-1.525 0.291,-2.496l0,-0.436c-0.901,0.734 -1.9,1.317 -2.995,1.747c-1.096,0.43 -2.316,0.645 -3.661,0.645c-3.273,-0 -5.797,-0.985 -7.572,-2.954c-1.775,-1.969 -2.662,-4.965 -2.662,-8.986c-0,-1.928 0.27,-3.592 0.811,-4.992c0.541,-1.401 1.304,-2.621 2.288,-3.661c0.915,-0.971 2.042,-1.727 3.38,-2.268c1.338,-0.54 2.708,-0.811 4.108,-0.811c1.262,0 2.41,0.149 3.443,0.447c1.033,0.299 1.973,0.711 2.819,1.238l0.27,-1.04l7.259,0l0,20.676Zm-7.488,-4.68l0,-10.588c-0.43,-0.18 -0.957,-0.322 -1.581,-0.426c-0.624,-0.104 -1.185,-0.156 -1.685,-0.156c-1.969,-0 -3.446,0.565 -4.43,1.695c-0.985,1.13 -1.477,2.708 -1.477,4.732c-0,2.247 0.419,3.814 1.258,4.701c0.839,0.888 2.084,1.332 3.734,1.332c0.749,-0 1.484,-0.118 2.205,-0.354c0.721,-0.236 1.38,-0.548 1.976,-0.936Z" style="fill:#747474;fill-rule:nonzero;"/>
            <path d="M252.619,209.593c-2.302,0 -4.427,-0.34 -6.376,-1.019c-1.948,-0.68 -3.622,-1.692 -5.023,-3.037c-1.401,-1.345 -2.486,-3.023 -3.255,-5.034c-0.77,-2.011 -1.155,-4.333 -1.155,-6.968c0,-2.455 0.368,-4.68 1.103,-6.677c0.735,-1.997 1.802,-3.71 3.203,-5.138c1.345,-1.373 3.013,-2.434 5.003,-3.183c1.99,-0.748 4.163,-1.123 6.521,-1.123c1.303,0 2.478,0.073 3.525,0.219c1.047,0.145 2.015,0.336 2.902,0.572c0.929,0.263 1.772,0.558 2.527,0.884c0.756,0.326 1.418,0.627 1.987,0.905l-0,7.509l-0.915,-0c-0.389,-0.333 -0.877,-0.728 -1.467,-1.186c-0.589,-0.458 -1.258,-0.908 -2.007,-1.352c-0.763,-0.444 -1.588,-0.818 -2.475,-1.123c-0.888,-0.305 -1.838,-0.458 -2.85,-0.458c-1.123,0 -2.191,0.177 -3.203,0.531c-1.013,0.353 -1.949,0.939 -2.809,1.757c-0.818,0.791 -1.48,1.838 -1.986,3.141c-0.506,1.304 -0.759,2.884 -0.759,4.743c-0,1.941 0.274,3.564 0.821,4.867c0.548,1.304 1.238,2.33 2.07,3.079c0.846,0.762 1.789,1.307 2.829,1.633c1.04,0.325 2.066,0.488 3.079,0.488c0.97,0 1.931,-0.145 2.88,-0.436c0.95,-0.292 1.827,-0.687 2.632,-1.186c0.679,-0.402 1.31,-0.832 1.893,-1.29c0.582,-0.457 1.06,-0.853 1.435,-1.185l0.832,-0l-0,7.405c-0.777,0.346 -1.519,0.672 -2.226,0.977c-0.707,0.305 -1.449,0.569 -2.225,0.791c-1.013,0.291 -1.963,0.513 -2.85,0.665c-0.888,0.153 -2.108,0.229 -3.661,0.229Z" style="fill:#747474;fill-rule:nonzero;"/>
            <rect x="267.282" y="176.624" width="7.488" height="32.366" style="fill:#747474;fill-rule:nonzero;"/>
            <path d="M302.37,208.99l-7.488,-0l-0,-2.579c-1.387,1.054 -2.656,1.854 -3.807,2.402c-1.151,0.548 -2.524,0.822 -4.119,0.822c-2.579,-0 -4.565,-0.742 -5.959,-2.226c-1.394,-1.484 -2.09,-3.675 -2.09,-6.573l-0,-15.205l7.529,-0l0,11.586c0,1.178 0.039,2.159 0.115,2.943c0.076,0.783 0.253,1.432 0.53,1.945c0.264,0.513 0.662,0.887 1.196,1.123c0.534,0.236 1.28,0.354 2.236,0.354c0.638,-0 1.346,-0.118 2.122,-0.354c0.777,-0.236 1.526,-0.582 2.247,-1.04l-0,-16.557l7.488,-0l-0,23.359Z" style="fill:#747474;fill-rule:nonzero;"/>
            <path d="M330.072,196.988c0,3.675 -1.016,6.67 -3.047,8.986c-2.032,2.316 -4.566,3.474 -7.603,3.474c-1.304,-0 -2.448,-0.139 -3.432,-0.416c-0.985,-0.278 -1.921,-0.68 -2.808,-1.207l-0.312,1.165l-7.177,-0l0,-32.366l7.489,-0l-0,11.44c1.151,-0.915 2.326,-1.657 3.525,-2.225c1.2,-0.569 2.583,-0.853 4.15,-0.853c2.954,-0 5.228,1.064 6.823,3.193c1.595,2.128 2.392,5.065 2.392,8.809Zm-7.717,0.145c-0,-2.08 -0.354,-3.681 -1.061,-4.805c-0.707,-1.123 -1.969,-1.684 -3.786,-1.684c-0.707,-0 -1.435,0.107 -2.184,0.322c-0.749,0.215 -1.463,0.523 -2.142,0.926l-0,11.731c0.541,0.194 1.054,0.326 1.539,0.396c0.485,0.069 1.068,0.104 1.747,0.104c1.983,-0 3.46,-0.583 4.431,-1.748c0.971,-1.165 1.456,-2.912 1.456,-5.242Z" style="fill:#747474;fill-rule:nonzero;"/>
        </g>
    </g>
</svg>
