<svg width="150" height="150" viewBox="0 0 150 150" fill="none" xmlns="http://www.w3.org/2000/svg">
<rect width="150" height="150" fill="white"/>
<rect x="62.7881" y="32.5678" width="9.71186" height="12.8644" fill="white" stroke="black" stroke-width="5"/>
<path fill-rule="evenodd" clip-rule="evenodd" d="M93.2866 81.6015C89.3518 92.4702 78.939 100.237 66.7122 100.237C55.6516 100.237 46.0754 93.8811 41.4364 84.6227H16.1525V60.0864H41.0774C45.5679 50.4264 55.3579 43.7288 66.7122 43.7288C79.2618 43.7288 89.9004 51.9107 93.5846 63.2312C126.853 67.2889 132.797 91.4557 132.797 106.78H110.994C110.994 90.6303 101.888 83.8778 93.2866 81.6015Z" fill="white"/>
<path d="M93.2866 81.6015L93.9262 79.1847L91.7146 78.5994L90.9359 80.7505L93.2866 81.6015ZM41.4364 84.6227L43.6715 83.5027L42.98 82.1227H41.4364V84.6227ZM16.1525 84.6227H13.6525V87.1227H16.1525V84.6227ZM16.1525 60.0864V57.5864H13.6525V60.0864H16.1525ZM41.0774 60.0864V62.5864H42.6722L43.3444 61.1402L41.0774 60.0864ZM93.5846 63.2312L91.2073 64.0049L91.7004 65.52L93.2819 65.7128L93.5846 63.2312ZM132.797 106.78V109.28H135.297V106.78H132.797ZM110.994 106.78H108.494V109.28H110.994V106.78ZM66.7122 102.737C80.0248 102.737 91.3556 94.2793 95.6373 82.4525L90.9359 80.7505C87.348 90.6611 77.8532 97.7367 66.7122 97.7367V102.737ZM39.2013 85.7426C44.2477 95.8141 54.6692 102.737 66.7122 102.737V97.7367C56.6339 97.7367 47.9031 91.948 43.6715 83.5027L39.2013 85.7426ZM16.1525 87.1227H41.4364V82.1227H16.1525V87.1227ZM13.6525 60.0864V84.6227H18.6525V60.0864H13.6525ZM41.0774 57.5864H16.1525V62.5864H41.0774V57.5864ZM66.7122 41.2288C54.3494 41.2288 43.6956 48.5235 38.8104 59.0325L43.3444 61.1402C47.4402 52.3293 56.3664 46.2288 66.7122 46.2288V41.2288ZM95.9619 62.4576C91.9525 50.138 80.376 41.2288 66.7122 41.2288V46.2288C78.1475 46.2288 87.8482 53.6835 91.2073 64.0049L95.9619 62.4576ZM93.2819 65.7128C109.27 67.6629 118.388 74.372 123.586 82.1676C128.855 90.0686 130.297 99.3887 130.297 106.78H135.297C135.297 98.8467 133.766 88.4214 127.746 79.3936C121.656 70.2604 111.168 62.8572 93.8873 60.7496L93.2819 65.7128ZM132.797 104.28H110.994V109.28H132.797V104.28ZM113.494 106.78C113.494 98.2085 111.065 91.8877 107.28 87.3805C103.519 82.9018 98.5936 80.4199 93.9262 79.1847L92.647 84.0183C96.5806 85.0593 100.509 87.0918 103.451 90.5959C106.37 94.0713 108.494 99.2014 108.494 106.78H113.494Z" fill="black"/>
<mask id="path-4-inside-1" fill="white">
<path fill-rule="evenodd" clip-rule="evenodd" d="M81.5583 30.0082C79.0466 34.823 74.008 38.11 68.2017 38.11C62.203 38.11 57.0237 34.6016 54.6039 29.5248C50.31 32.0413 43.7588 33.6492 36.4189 33.6492C23.485 33.6492 13 28.6564 13 22.4974C13 16.3384 23.485 11.3455 36.4189 11.3455C44.0135 11.3455 50.7638 13.067 55.0428 15.7353C57.615 11.121 62.5439 8 68.2017 8C73.6573 8 78.4352 10.9019 81.0759 15.2464C85.3711 12.8586 91.7491 11.3455 98.8692 11.3455C111.803 11.3455 122.288 16.3384 122.288 22.4974C122.288 28.6564 111.803 33.6492 98.8692 33.6492C92.011 33.6492 85.8413 32.2454 81.5583 30.0082Z"/>
</mask>
<path fill-rule="evenodd" clip-rule="evenodd" d="M81.5583 30.0082C79.0466 34.823 74.008 38.11 68.2017 38.11C62.203 38.11 57.0237 34.6016 54.6039 29.5248C50.31 32.0413 43.7588 33.6492 36.4189 33.6492C23.485 33.6492 13 28.6564 13 22.4974C13 16.3384 23.485 11.3455 36.4189 11.3455C44.0135 11.3455 50.7638 13.067 55.0428 15.7353C57.615 11.121 62.5439 8 68.2017 8C73.6573 8 78.4352 10.9019 81.0759 15.2464C85.3711 12.8586 91.7491 11.3455 98.8692 11.3455C111.803 11.3455 122.288 16.3384 122.288 22.4974C122.288 28.6564 111.803 33.6492 98.8692 33.6492C92.011 33.6492 85.8413 32.2454 81.5583 30.0082Z" fill="white"/>
<path d="M81.5583 30.0082L83.8731 25.5764L79.4389 23.2603L77.1252 27.6957L81.5583 30.0082ZM54.6039 29.5248L59.1174 27.3734L56.7742 22.4575L52.0757 25.211L54.6039 29.5248ZM55.0428 15.7353L52.3971 19.978L56.8531 22.7566L59.41 18.1698L55.0428 15.7353ZM81.0759 15.2464L76.8032 17.8435L79.3015 21.9536L83.5053 19.6165L81.0759 15.2464ZM77.1252 27.6957C75.4412 30.924 72.0726 33.11 68.2017 33.11V43.11C75.9435 43.11 82.6521 38.722 85.9913 32.3208L77.1252 27.6957ZM68.2017 33.11C64.2027 33.11 60.7391 30.7758 59.1174 27.3734L50.0904 31.6762C53.3083 38.4274 60.2032 43.11 68.2017 43.11V33.11ZM36.4189 38.6492C44.3719 38.6492 51.8642 36.9258 57.132 33.8386L52.0757 25.211C48.7557 27.1568 43.1456 28.6492 36.4189 28.6492V38.6492ZM8 22.4974C8 28.6198 13.0357 32.6716 17.7096 34.8972C22.7563 37.3004 29.3768 38.6492 36.4189 38.6492V28.6492C30.5271 28.6492 25.4381 27.5016 22.0089 25.8686C18.2068 24.0581 18 22.5339 18 22.4974H8ZM36.4189 6.34554C29.3768 6.34554 22.7563 7.69433 17.7096 10.0975C13.0357 12.3232 8 16.3749 8 22.4974H18C18 22.4609 18.2068 20.9367 22.0089 19.1261C25.4381 17.4932 30.5271 16.3455 36.4189 16.3455V6.34554ZM57.6884 11.4926C52.3846 8.18526 44.6328 6.34554 36.4189 6.34554V16.3455C43.3942 16.3455 49.143 17.9488 52.3971 19.978L57.6884 11.4926ZM59.41 18.1698C61.1352 15.075 64.4295 13 68.2017 13V3C60.6582 3 54.0948 7.16693 50.6755 13.3007L59.41 18.1698ZM68.2017 13C71.8396 13 75.0316 14.9288 76.8032 17.8435L85.3485 12.6494C81.8387 6.87509 75.4751 3 68.2017 3V13ZM98.8692 6.34554C91.1432 6.34554 83.8725 7.97106 78.6464 10.8763L83.5053 19.6165C86.8697 17.7462 92.3549 16.3455 98.8692 16.3455V6.34554ZM127.288 22.4974C127.288 16.3749 122.252 12.3232 117.579 10.0975C112.532 7.69433 105.911 6.34554 98.8692 6.34554V16.3455C104.761 16.3455 109.85 17.4932 113.279 19.1261C117.081 20.9367 117.288 22.4609 117.288 22.4974H127.288ZM98.8692 38.6492C105.911 38.6492 112.532 37.3004 117.579 34.8972C122.252 32.6716 127.288 28.6198 127.288 22.4974H117.288C117.288 22.5339 117.081 24.0581 113.279 25.8686C109.85 27.5016 104.761 28.6492 98.8692 28.6492V38.6492ZM79.2434 34.4401C84.4072 37.1373 91.416 38.6492 98.8692 38.6492V28.6492C92.606 28.6492 87.2754 27.3535 83.8731 25.5764L79.2434 34.4401Z" fill="black" mask="url(#path-4-inside-1)"/>
<path d="M111.521 114.136L105.475 141.458M131.818 114.136L137 141.458M121.885 114.136V141.458" stroke="black" stroke-width="5" stroke-linecap="round"/>
</svg>
