<svg width="150" height="150" viewBox="0 0 150 150" fill="none" xmlns="http://www.w3.org/2000/svg">
<rect width="150" height="150" fill="white"/>
<path d="M88.5 82.5C103.392 82.5 116.783 84.1641 126.374 86.8038C131.187 88.1285 134.901 89.6609 137.354 91.2567C139.913 92.9221 140.5 94.242 140.5 95C140.5 96.2752 140.236 97.157 139.875 97.8007C139.512 98.4474 138.972 98.9944 138.214 99.4801C136.592 100.519 134.295 101.1 131.469 101.715C131.253 101.762 131.033 101.809 130.81 101.857C128.353 102.386 125.501 102.999 123.259 104.197C121.976 104.883 120.754 105.824 119.862 107.17C118.955 108.538 118.5 110.156 118.5 112C118.5 113.18 117.729 114.765 115.233 116.605C112.788 118.409 109.089 120.138 104.293 121.634C94.7315 124.617 81.3692 126.5 66.5 126.5C51.6308 126.5 38.2685 124.617 28.7071 121.634C23.9115 120.138 20.2125 118.409 17.7667 116.605C15.2713 114.765 14.5 113.18 14.5 112C14.5 109.683 15.4165 108.309 16.8971 107.245C18.5515 106.055 20.8911 105.278 23.6614 104.518C24.0837 104.402 24.5207 104.286 24.9666 104.167C27.2262 103.565 29.7131 102.903 31.6698 101.937C32.8878 101.335 34.102 100.527 35.0168 99.3687C35.9714 98.1597 36.5 96.6931 36.5 95C36.5 94.242 37.0872 92.9221 39.6464 91.2567C42.0988 89.6609 45.8129 88.1285 50.6261 86.8038C60.2169 84.1641 73.6083 82.5 88.5 82.5Z" fill="white" stroke="black" stroke-width="5"/>
<path d="M53.5 96C74.1058 91.6212 97.2852 92.3631 105.5 96" stroke="black" stroke-width="4" stroke-linecap="round"/>
<path d="M79 113C63.9419 117.361 47.0031 116.622 41 113" stroke="black" stroke-width="4" stroke-linecap="round"/>
<path d="M71 102.999C81.0117 100.477 92.1283 101.4 95.9813 103.965" stroke="black" stroke-width="4" stroke-linecap="round"/>
<path d="M114.976 17.0118L115.567 19.6506L118.151 18.8549C119.594 18.4107 121.154 18.1667 122.787 18.1667C130.678 18.1667 136.5 23.7126 136.5 29.8889C136.5 32.7436 135.301 35.4026 133.22 37.4873L132.041 38.6684L132.68 40.2102C133.186 41.4324 133.46 42.7439 133.46 44.1111C133.46 50.2874 127.638 55.8333 119.747 55.8333C118.002 55.8333 116.341 55.5548 114.817 55.0512L113.688 54.678L112.686 55.3191C109.578 57.3071 105.717 58.5 101.507 58.5C93.8118 58.5 87.3528 54.5319 84.4333 49.0693L83.7924 47.8701L82.4375 47.7565C72.6517 46.9353 65.5 39.7966 65.5 31.6667C65.5 23.0357 73.5903 15.5 84.28 15.5C85.0619 15.5 85.8318 15.5411 86.587 15.6209L88.2521 15.7967L89.0485 14.3238C91.1716 10.3973 95.865 7.5 101.507 7.5C108.413 7.5 113.809 11.8007 114.976 17.0118Z" fill="white" stroke="black" stroke-width="5"/>
<path d="M92.0513 59L90 75M103.538 59L106 75" stroke="black" stroke-width="4" stroke-linecap="round"/>
<path d="M36.5779 28.8678L36.1727 31.7203L33.4058 30.917C32.4344 30.635 31.3966 30.5079 30.3203 30.5657C25.218 30.8396 21.3213 35.1762 21.5927 40.2301C21.7167 42.5409 22.6862 44.602 24.1929 46.1405L25.231 47.2006L24.7978 48.6197C24.4949 49.6119 24.3567 50.6748 24.4159 51.7778C24.6873 56.8317 29.026 60.7261 34.1283 60.4521C35.2779 60.3904 36.3616 60.1235 37.3493 59.6913L38.5811 59.1524L39.7098 59.883C41.9195 61.3132 44.5865 62.0841 47.4268 61.9316C52.5908 61.6543 56.8821 58.3934 58.7029 53.9182L59.2397 52.5989L60.6484 52.388C67.1522 51.4143 71.9561 45.6574 71.599 39.0073C71.2195 31.94 65.1539 26.5016 58.0295 26.8841C57.5005 26.9125 56.9817 26.9721 56.4747 27.0606L54.7063 27.3695L53.8485 25.7925C52.203 22.7677 48.9105 20.7929 45.2284 20.9906C40.7424 21.2315 37.1817 24.6173 36.5779 28.8678Z" fill="white" stroke="black" stroke-width="5"/>
<path d="M55.0581 61.1031L57.8969 78.1047M44.3043 61.6806L42.9184 78.909" stroke="black" stroke-width="4" stroke-linecap="round"/>
</svg>
